<?xml version="1.0" standalone="no"?><!DOCTYPE svg PUBLIC "-//W3C//DTD SVG 1.1//EN" "http://www.w3.org/Graphics/SVG/1.1/DTD/svg11.dtd"><svg t="1637414258984" class="icon" viewBox="0 0 1024 1024" version="1.1" xmlns="http://www.w3.org/2000/svg" p-id="5243" xmlns:xlink="http://www.w3.org/1999/xlink" width="200" height="200"><defs><style type="text/css"></style></defs><path d="M1011.981796 1011.981796a38.323353 38.323353 0 0 1-54.265868 0l-155.18812-155.163592c-198.582419 169.438275-495.530156 151.815665-672.676024-39.917605-177.152-191.739401-171.271665-489.147018 13.312-673.736815 184.589796-184.583665 481.997413-190.464 673.730683-13.312 191.739401 177.145868 209.362012 474.093605 39.923737 672.676024l155.163592 155.18812a38.323353 38.323353 0 0 1 0 54.265868z" fill="#5874CF" p-id="5244"></path><path d="M776.774515 197.760766c-117.091641-117.097772-293.188982-152.128383-446.188072-88.763017-152.986826 63.371497-252.75018 212.660886-252.75018 378.260694 0 165.593677 99.763353 314.889198 252.75018 378.254563 152.99909 63.371497 329.096431 28.334754 446.188072-88.763018 159.860503-159.891162 159.860503-419.09806 0-578.989222z" fill="#839EF8" p-id="5245"></path><path d="M367.076407 226.169102v0.153293a36.29988 36.29988 0 0 1-11.092311 48.391665 248.97303 248.97303 0 0 0-99.640719 150.203018 39.396407 39.396407 0 0 1-41.334036 30.916215 37.937054 37.937054 0 0 1-36.385724-44.025868A323.682108 323.682108 0 0 1 309.775329 213.905629a40.420407 40.420407 0 0 1 57.30721 12.263473z" fill="#FFFFFF" p-id="5246"></path></svg>